<svg width="512" height="512" viewBox="0 0 512 512" fill="none" xmlns="http://www.w3.org/2000/svg">
<rect width="512" height="512" fill="#1E1E1E"/>
<g filter="url(#filter0_i_0_1)">
<rect width="512" height="512" rx="96" fill="url(#paint0_linear_0_1)"/>
<g filter="url(#filter1_d_0_1)">
<path d="M206.526 145.685C169.252 153.399 168.683 184.483 153.769 243.947C156.826 235.842 169.187 223.024 169.187 223.024C169.187 223.024 189.142 205.766 213.551 200.504C214.316 200.339 215.105 200.254 215.888 200.232C287.618 198.27 340.968 204.741 362.268 185.582C370.599 177.413 375.044 170.263 379.057 161.36C383.028 152.548 376.415 142.669 366.753 142.416C326.259 141.359 235.2 139.751 206.526 145.685Z" fill="url(#paint1_linear_0_1)"/>
<path d="M147.201 275.954C154.047 258.707 159.136 252.138 169.187 243.947C181.046 233.098 189.247 228.694 205.894 223.024C226.01 218.146 238.816 217.6 262.791 218.252H319.217C328.597 218.252 335.614 227.439 331.63 235.932C330.405 238.544 329.046 241.087 327.396 243.947C319.62 255.434 314.645 259.188 305.372 264.136C291.541 270.277 283.26 272.259 267.196 272.212C245.101 272.258 237.354 270.954 223.252 272.108C222.45 272.174 221.644 272.318 220.869 272.529C199.618 278.31 192.994 282.757 184.604 290.199C175.34 297.612 169.705 302.563 164.972 307.4C165.872 306.623 166.927 305.804 168.208 304.887C172.521 301.799 178.126 298.175 183.036 296.169C188.003 294.141 194.682 291.776 200.822 290.095C208.324 288.042 213.846 294.294 212.12 301.877C205.603 330.501 194.083 342.837 173.592 356.272C162.516 362.958 149.276 368.455 135.523 370.104C130.367 370.722 126.579 365.863 127.731 360.799C134.785 330.681 138.839 313.166 146.556 278.069C146.714 277.354 146.931 276.634 147.201 275.954Z" fill="url(#paint2_linear_0_1)"/>
</g>
</g>
<defs>
<filter id="filter0_i_0_1" x="0" y="0" width="512" height="518" filterUnits="userSpaceOnUse" color-interpolation-filters="sRGB">
<feFlood flood-opacity="0" result="BackgroundImageFix"/>
<feBlend mode="normal" in="SourceGraphic" in2="BackgroundImageFix" result="shape"/>
<feColorMatrix in="SourceAlpha" type="matrix" values="0 0 0 0 0 0 0 0 0 0 0 0 0 0 0 0 0 0 127 0" result="hardAlpha"/>
<feMorphology radius="10" operator="dilate" in="SourceAlpha" result="effect1_innerShadow_0_1"/>
<feOffset dy="6"/>
<feGaussianBlur stdDeviation="10"/>
<feComposite in2="hardAlpha" operator="arithmetic" k2="-1" k3="1"/>
<feColorMatrix type="matrix" values="0 0 0 0 0 0 0 0 0 0 0 0 0 0 0 0 0 0 0.2 0"/>
<feBlend mode="normal" in2="shape" result="effect1_innerShadow_0_1"/>
</filter>
<filter id="filter1_d_0_1" x="127.524" y="141.39" width="252.706" height="231.767" filterUnits="userSpaceOnUse" color-interpolation-filters="sRGB">
<feFlood flood-opacity="0" result="BackgroundImageFix"/>
<feColorMatrix in="SourceAlpha" type="matrix" values="0 0 0 0 0 0 0 0 0 0 0 0 0 0 0 0 0 0 127 0" result="hardAlpha"/>
<feOffset dy="3"/>
<feComposite in2="hardAlpha" operator="out"/>
<feColorMatrix type="matrix" values="0 0 0 0 0 0 0 0 0 0 0 0 0 0 0 0 0 0 0.15 0"/>
<feBlend mode="normal" in2="BackgroundImageFix" result="effect1_dropShadow_0_1"/>
<feBlend mode="normal" in="SourceGraphic" in2="effect1_dropShadow_0_1" result="shape"/>
</filter>
<linearGradient id="paint0_linear_0_1" x1="256" y1="0" x2="256" y2="512" gradientUnits="userSpaceOnUse">
<stop offset="0.5" stop-color="#181C2F"/>
<stop offset="1" stop-color="#15182B"/>
</linearGradient>
<linearGradient id="paint1_linear_0_1" x1="256" y1="141.39" x2="256" y2="370.61" gradientUnits="userSpaceOnUse">
<stop stop-color="#70ABEF"/>
<stop offset="0.5" stop-color="#6571D5"/>
<stop offset="1" stop-color="#4A53B2"/>
</linearGradient>
<linearGradient id="paint2_linear_0_1" x1="256" y1="141.39" x2="256" y2="370.61" gradientUnits="userSpaceOnUse">
<stop stop-color="#70ABEF"/>
<stop offset="0.5" stop-color="#6571D5"/>
<stop offset="1" stop-color="#4A53B2"/>
</linearGradient>
</defs>
</svg>
